<svg width="43" height="39" viewBox="0 0 43 39" fill="none" xmlns="http://www.w3.org/2000/svg">
<g clip-path="url(#clip0_42_140)">
<path d="M18.2336 32.6505C18.3002 32.0636 17.7857 31.6225 17.0912 31.6929C16.3968 31.7634 15.7366 32.3267 15.6075 32.9302C15.4783 33.5337 15.9782 33.9338 16.7372 33.8496C17.4962 33.7655 18.1662 33.2422 18.2336 32.6505Z" fill="#217EC3"/>
<path d="M13.4151 33.2837C13.5795 32.6684 13.1374 32.2645 12.4419 32.4034C11.7465 32.5423 11.0169 33.1976 10.789 33.8421C10.5611 34.4867 10.9758 34.8506 11.7348 34.6823C12.4938 34.5141 13.2518 33.8999 13.4151 33.2837Z" fill="#217EC3"/>
<path d="M8.59543 34.4303C8.85756 33.7652 8.48686 33.3789 7.79241 33.5901C7.09796 33.8014 6.29494 34.5624 5.96924 35.2705C5.64353 35.9787 5.96924 36.3259 6.73117 36.0716C7.49311 35.8173 8.33525 35.0974 8.59543 34.4303Z" fill="#217EC3"/>
<path d="M3.77737 36.0886C4.13731 35.3521 3.83801 34.9648 3.14356 35.2465C2.44911 35.5282 1.5786 36.4202 1.15118 37.2086C0.723748 37.9969 0.96925 38.3519 1.72825 38.0135C2.48726 37.6751 3.41841 36.8251 3.77737 36.0886Z" fill="#217EC3"/>
<path d="M39.7029 36.0888C40.0618 36.8253 40.994 37.6743 41.752 38.0137C42.51 38.3531 42.7516 38.0039 42.3291 37.2087C41.9065 36.4135 41.0321 35.5264 40.3357 35.2467C39.6393 34.9669 39.3429 35.3523 39.7029 36.0888Z" fill="#217EC3"/>
<path d="M37.51 35.2703C37.1853 34.5621 36.3823 33.8031 35.6869 33.5899C34.9914 33.3767 34.6217 33.765 34.8838 34.4301C35.146 35.0952 35.991 35.818 36.75 36.0752C37.5091 36.3325 37.8348 35.9774 37.51 35.2703Z" fill="#217EC3"/>
<path d="M32.691 33.8445C32.4641 33.1999 31.7334 32.5456 31.038 32.4057C30.3426 32.2658 29.9005 32.6688 30.0599 33.286C30.2193 33.9032 30.9832 34.5164 31.7412 34.6866C32.4993 34.8568 32.9179 34.4891 32.691 33.8445Z" fill="#217EC3"/>
<path d="M27.872 32.933C27.7429 32.3295 27.0846 31.7652 26.3892 31.6957C25.6937 31.6263 25.1793 32.0645 25.2458 32.6513C25.3123 33.2382 25.9852 33.7654 26.7432 33.8505C27.5013 33.9356 28.0021 33.5375 27.872 32.933Z" fill="#217EC3"/>
<path d="M23.0568 32.5359C23.0255 31.949 22.4387 31.46 21.7442 31.46C21.0498 31.46 20.4619 31.949 20.4306 32.5359C20.3993 33.1227 20.9852 33.5746 21.7442 33.5746C22.5032 33.5746 23.0852 33.1217 23.0568 32.5359Z" fill="#217EC3"/>
<path d="M18.5898 29.2808C18.6397 28.694 18.1643 28.2421 17.5354 28.293C17.2191 28.3292 16.9224 28.4646 16.6878 28.6799C16.4533 28.8951 16.2929 29.1791 16.2296 29.4911C16.1318 30.0946 16.5925 30.5152 17.2703 30.4497C17.9482 30.3841 18.5399 29.8706 18.5898 29.2808Z" fill="#217EC3"/>
<path d="M14.2589 29.7537C14.3821 29.1375 13.9596 28.7081 13.3306 28.8099C12.7017 28.9116 12.0699 29.5288 11.8997 30.1733C11.7295 30.8179 12.1227 31.2189 12.7995 31.0888C13.4764 30.9587 14.1366 30.3699 14.2589 29.7537Z" fill="#217EC3"/>
<path d="M9.92861 30.6128C10.1242 29.9477 9.75451 29.5193 9.12559 29.6728C8.49667 29.8264 7.81201 30.5345 7.56846 31.2427C7.32491 31.9508 7.65258 32.3499 8.32942 32.1543C9.00626 31.9587 9.73299 31.2818 9.92861 30.6128Z" fill="#217EC3"/>
<path d="M5.59842 31.8575C5.86838 31.121 5.54952 30.676 4.9206 30.8794C4.29168 31.0829 3.55126 31.9035 3.23827 32.6977C2.92528 33.4919 3.18154 33.9076 3.85936 33.6465C4.53718 33.3853 5.32944 32.594 5.59842 31.8575Z" fill="#217EC3"/>
<path d="M40.2421 32.6974C39.9242 31.9032 39.1887 31.0816 38.5588 30.8791C37.9289 30.6766 37.612 31.1207 37.8819 31.8572C38.1519 32.5937 38.9441 33.385 39.621 33.6461C40.2978 33.9073 40.558 33.4926 40.2421 32.6974Z" fill="#217EC3"/>
<path d="M35.9109 31.2431C35.6673 30.5349 34.9836 29.8248 34.3537 29.6732C33.7238 29.5216 33.3541 29.9481 33.5507 30.6132C33.7473 31.2783 34.474 31.959 35.1499 32.1546C35.8258 32.3503 36.1544 31.9522 35.9109 31.2431Z" fill="#217EC3"/>
<path d="M31.581 30.1733C31.4108 29.5288 30.779 28.9116 30.1491 28.8099C29.5192 28.7081 29.0976 29.1375 29.2209 29.7537C29.3441 30.3699 30.0034 30.9578 30.6802 31.0888C31.3571 31.2199 31.7512 30.8189 31.581 30.1733Z" fill="#217EC3"/>
<path d="M27.2497 29.4912C27.1866 29.1793 27.0263 28.8954 26.7919 28.6802C26.5576 28.4649 26.2611 28.3294 25.945 28.293C25.3151 28.2421 24.8407 28.692 24.8906 29.2809C24.9404 29.8697 25.5332 30.3842 26.21 30.4497C26.8869 30.5152 27.3475 30.0946 27.2497 29.4912Z" fill="#217EC3"/>
<path d="M22.9197 29.1931C22.8963 28.6062 22.3691 28.1172 21.7402 28.1172C21.1112 28.1172 20.5831 28.6062 20.5596 29.1931C20.5361 29.78 21.0633 30.2367 21.7402 30.2367C22.417 30.2367 22.9442 29.779 22.9197 29.1931Z" fill="#217EC3"/>
<path d="M18.843 25.9082C18.8543 25.7729 18.8362 25.6368 18.79 25.5092C18.7438 25.3815 18.6705 25.2654 18.5752 25.1688C18.4798 25.0722 18.3647 24.9973 18.2377 24.9493C18.1107 24.9014 17.9749 24.8815 17.8394 24.891C17.2526 24.9213 16.7381 25.4446 16.6736 26.0481C16.609 26.6516 17.0462 27.0927 17.6634 27.0467C18.2806 27.0007 18.8107 26.498 18.843 25.9082Z" fill="#217EC3"/>
<path d="M14.8622 26.2248C14.9443 25.6086 14.5247 25.1489 13.9398 25.2154C13.3549 25.2819 12.8062 25.86 12.6888 26.5045C12.5715 27.1491 12.9666 27.5863 13.5828 27.4944C14.199 27.4024 14.78 26.84 14.8622 26.2248Z" fill="#217EC3"/>
<path d="M10.8805 26.7968C11.0125 26.1317 10.6242 25.6622 10.0403 25.7561C9.45635 25.85 8.87438 26.5083 8.71104 27.2174C8.5477 27.9265 8.89297 28.3764 9.50917 28.2385C10.1254 28.1006 10.7504 27.4619 10.8805 26.7968Z" fill="#217EC3"/>
<path d="M6.89978 27.6254C7.07975 26.8899 6.72275 26.391 6.14078 26.5123C5.55881 26.6336 4.94163 27.3926 4.72938 28.1858C4.51714 28.9791 4.81546 29.4632 5.43264 29.2793C6.04981 29.0955 6.72275 28.3619 6.89978 27.6254Z" fill="#217EC3"/>
<path d="M38.75 28.1858C38.5388 27.3916 37.9245 26.6375 37.3396 26.5123C36.7547 26.3871 36.3997 26.8898 36.5806 27.6254C36.7616 28.3609 37.4316 29.0925 38.0478 29.2793C38.664 29.4662 38.9613 28.98 38.75 28.1858Z" fill="#217EC3"/>
<path d="M34.7692 27.2169C34.6058 26.5078 34.0249 25.8476 33.4399 25.7557C32.855 25.6637 32.4677 26.1322 32.5988 26.7964C32.7298 27.4605 33.3539 28.1002 33.9681 28.2381C34.5824 28.376 34.9306 27.9251 34.7692 27.2169Z" fill="#217EC3"/>
<path d="M30.7837 26.5049C30.6702 25.8603 30.1205 25.2783 29.5356 25.2157C28.9507 25.1531 28.5311 25.607 28.6143 26.2251C28.6974 26.8433 29.2735 27.3988 29.8858 27.4967C30.4981 27.5945 30.9011 27.1504 30.7837 26.5049Z" fill="#217EC3"/>
<path d="M26.806 26.0481C26.7415 25.4446 26.225 24.9213 25.6401 24.891C25.5047 24.8815 25.3688 24.9014 25.2418 24.9493C25.1148 24.9973 24.9997 25.0722 24.9044 25.1688C24.8091 25.2654 24.7358 25.3815 24.6895 25.5092C24.6433 25.6368 24.6252 25.7729 24.6366 25.9082C24.6698 26.4951 25.201 27.0007 25.8172 27.0467C26.4334 27.0927 26.8715 26.6525 26.806 26.0481Z" fill="#217EC3"/>
<path d="M22.8249 25.8503C22.8249 25.5627 22.7106 25.2868 22.5072 25.0833C22.3037 24.8799 22.0278 24.7656 21.7402 24.7656C21.4525 24.7656 21.1766 24.8799 20.9731 25.0833C20.7697 25.2868 20.6554 25.5627 20.6554 25.8503C20.6388 26.4372 21.123 26.8989 21.7402 26.8989C22.3573 26.8989 22.8405 26.4362 22.8249 25.8503Z" fill="#217EC3"/>
<path d="M18.9959 22.5361C19.0125 21.9492 18.5665 21.4758 18.0051 21.4885C17.4436 21.5012 16.9722 22.003 16.9399 22.6065C16.9077 23.21 17.34 23.6716 17.918 23.6443C18.2032 23.6262 18.4714 23.5028 18.6706 23.298C18.8698 23.0932 18.9858 22.8216 18.9959 22.5361Z" fill="#217EC3"/>
<path d="M15.2243 22.6948C15.2654 22.0786 14.8331 21.5964 14.2707 21.6189C13.7083 21.6414 13.2251 22.1862 13.1684 22.8347C13.1117 23.4832 13.5166 23.9527 14.0937 23.8989C14.6707 23.8451 15.1833 23.3101 15.2243 22.6948Z" fill="#217EC3"/>
<path d="M11.4515 22.9809C11.518 22.3167 11.0965 21.8072 10.536 21.8404C9.97556 21.8737 9.47771 22.4801 9.39653 23.1912C9.31534 23.9022 9.68996 24.402 10.27 24.3228C10.85 24.2436 11.387 23.646 11.4515 22.9809Z" fill="#217EC3"/>
<path d="M7.68029 23.3946C7.77027 22.659 7.36143 22.0976 6.8 22.1465C6.23857 22.1954 5.72898 22.8811 5.62628 23.6753C5.52358 24.4695 5.87179 25.0202 6.44886 24.9136C7.02594 24.8069 7.59128 24.1311 7.68029 23.3946Z" fill="#217EC3"/>
<path d="M37.8552 23.6752C37.7496 22.881 37.241 22.1943 36.6815 22.1464C36.1221 22.0985 35.7122 22.6589 35.8012 23.3945C35.8902 24.13 36.4575 24.8068 37.0336 24.9135C37.6097 25.0201 37.9609 24.4694 37.8552 23.6752Z" fill="#217EC3"/>
<path d="M34.0837 23.1904C34.0026 22.4823 33.5057 21.8759 32.9443 21.8397C32.3828 21.8035 31.9662 22.316 32.0278 22.9802C32.0894 23.6443 32.6332 24.2419 33.2093 24.3221C33.7854 24.4023 34.1649 23.8986 34.0837 23.1904Z" fill="#217EC3"/>
<path d="M30.3113 22.8338C30.2546 22.1882 29.7714 21.6434 29.21 21.62C28.6486 21.5965 28.2153 22.0777 28.2564 22.6959C28.2974 23.314 28.81 23.8471 29.3861 23.8999C29.9622 23.9527 30.3691 23.4783 30.3113 22.8338Z" fill="#217EC3"/>
<path d="M26.5398 22.6065C26.5075 22.003 26.0361 21.5002 25.4747 21.4885C24.9132 21.4768 24.4672 21.9472 24.4838 22.536C24.4944 22.8211 24.6101 23.0922 24.8089 23.2969C25.0076 23.5015 25.2751 23.6253 25.5598 23.6442C26.1407 23.6716 26.5721 23.2099 26.5398 22.6065Z" fill="#217EC3"/>
<path d="M22.7684 22.5064C22.777 22.3662 22.7569 22.2258 22.7092 22.0936C22.6615 21.9615 22.5872 21.8406 22.491 21.7382C22.3948 21.6359 22.2787 21.5543 22.1497 21.4986C22.0208 21.4428 21.8818 21.4141 21.7414 21.4141C21.6009 21.4141 21.4619 21.4428 21.333 21.4986C21.2041 21.5543 21.0879 21.6359 20.9917 21.7382C20.8955 21.8406 20.8212 21.9615 20.7735 22.0936C20.7258 22.2258 20.7057 22.3662 20.7144 22.5064C20.7083 22.6451 20.7304 22.7835 20.7793 22.9134C20.8282 23.0433 20.9028 23.1619 20.9988 23.2621C21.0947 23.3624 21.21 23.4422 21.3376 23.4967C21.4653 23.5512 21.6026 23.5793 21.7414 23.5793C21.8801 23.5793 22.0175 23.5512 22.1451 23.4967C22.2727 23.4422 22.388 23.3624 22.4839 23.2621C22.5799 23.1619 22.6546 23.0433 22.7035 22.9134C22.7523 22.7835 22.7744 22.6451 22.7684 22.5064Z" fill="#217EC3"/>
<path d="M19.0464 19.1629C19.0512 18.8863 18.9475 18.6189 18.7576 18.4178C18.5677 18.2167 18.3065 18.0979 18.0301 18.087C17.4716 18.0801 17.0286 18.5614 17.0286 19.1629C17.0286 19.7644 17.4716 20.2486 18.0301 20.2388C18.3064 20.2276 18.5674 20.1088 18.7573 19.9078C18.9472 19.7067 19.0509 19.4394 19.0464 19.1629Z" fill="#217EC3"/>
<path d="M15.3445 19.1632C15.3445 18.548 14.8799 18.0384 14.3214 18.0247C13.7629 18.011 13.3267 18.5137 13.3267 19.1632C13.3267 19.8126 13.7629 20.3173 14.3214 20.3027C14.8799 20.288 15.3445 19.7794 15.3445 19.1632Z" fill="#217EC3"/>
<path d="M11.6421 19.1637C11.6421 18.4996 11.1706 17.945 10.6121 17.9235C10.0537 17.9019 9.62427 18.4555 9.62427 19.1637C9.62427 19.8718 10.0527 20.4274 10.6121 20.4049C11.1716 20.3824 11.6421 19.8288 11.6421 19.1637Z" fill="#217EC3"/>
<path d="M7.94066 19.1642C7.94066 18.4287 7.46139 17.8096 6.90388 17.7812C6.34636 17.7529 5.92578 18.3681 5.92578 19.1642C5.92578 19.9604 6.34734 20.5776 6.90388 20.5483C7.46042 20.5189 7.94066 19.9008 7.94066 19.1642Z" fill="#217EC3"/>
<path d="M37.5581 19.1643C37.5581 18.3701 37.1356 17.7519 36.58 17.7813C36.0244 17.8106 35.5422 18.4288 35.5432 19.1643C35.5442 19.8998 36.0215 20.519 36.58 20.5483C37.1385 20.5777 37.5571 19.9595 37.5581 19.1643Z" fill="#217EC3"/>
<path d="M33.855 19.1637C33.855 18.4556 33.4266 17.901 32.8681 17.9235C32.3096 17.946 31.8372 18.4996 31.8381 19.1637C31.8391 19.8279 32.3096 20.3834 32.8681 20.4049C33.4266 20.4265 33.855 19.8729 33.855 19.1637Z" fill="#217EC3"/>
<path d="M30.1531 19.1632C30.1531 18.5187 29.7178 18.0101 29.1583 18.0247C28.5989 18.0394 28.1353 18.548 28.1362 19.1632C28.1372 19.7785 28.5999 20.288 29.1583 20.3027C29.7168 20.3174 30.1531 19.8088 30.1531 19.1632Z" fill="#217EC3"/>
<path d="M26.4505 19.163C26.4505 18.5595 26.0074 18.0773 25.449 18.0871C25.1636 18.0871 24.8899 18.2004 24.6882 18.4022C24.4864 18.604 24.373 18.8776 24.373 19.163C24.373 19.4483 24.4864 19.722 24.6882 19.9237C24.8899 20.1255 25.1636 20.2389 25.449 20.2389C26.0074 20.2487 26.4505 19.7674 26.4505 19.163Z" fill="#217EC3"/>
<path d="M22.7489 19.1636C22.7395 18.966 22.6723 18.7755 22.5556 18.6157C22.439 18.456 22.278 18.334 22.0926 18.2648C21.9073 18.1957 21.7057 18.1825 21.5129 18.2269C21.3201 18.2713 21.1446 18.3713 21.0081 18.5146C20.8717 18.6578 20.7803 18.8379 20.7452 19.0326C20.7102 19.2273 20.7331 19.428 20.8111 19.6098C20.889 19.7916 21.0187 19.9465 21.1839 20.0554C21.3491 20.1642 21.5426 20.2221 21.7404 20.2219C21.8762 20.2189 22.0101 20.1891 22.1343 20.1342C22.2585 20.0793 22.3707 20.0004 22.4644 19.9021C22.5581 19.8038 22.6314 19.688 22.6802 19.5612C22.729 19.4345 22.7524 19.2994 22.7489 19.1636Z" fill="#217EC3"/>
<path d="M18.9958 15.7919C18.9855 15.5066 18.8698 15.2353 18.6711 15.0304C18.4724 14.8256 18.2047 14.7017 17.9199 14.6827C17.3428 14.6563 16.9105 15.117 16.9418 15.7215C16.9731 16.3259 17.4455 16.8277 18.0069 16.8394C18.5684 16.8512 19.0124 16.3807 18.9958 15.7919Z" fill="#217EC3"/>
<path d="M15.2242 15.6329C15.1831 15.0176 14.6706 14.4817 14.0935 14.4288C13.5164 14.376 13.1154 14.8484 13.1682 15.493C13.2211 16.1376 13.7091 16.6833 14.2706 16.7068C14.832 16.7303 15.2653 16.2501 15.2242 15.6329Z" fill="#217EC3"/>
<path d="M11.4514 15.3484C11.3869 14.6833 10.847 14.0867 10.2699 14.0064C9.69282 13.9262 9.31528 14.429 9.39646 15.1381C9.47764 15.8472 9.97354 16.4527 10.5359 16.4889C11.0983 16.5251 11.515 16.0125 11.4514 15.3484Z" fill="#217EC3"/>
<path d="M7.67988 14.9333C7.59087 14.1968 7.02358 13.52 6.4465 13.4144C5.86942 13.3087 5.51829 13.8584 5.62392 14.6526C5.72955 15.4468 6.23914 16.1335 6.79764 16.1814C7.35613 16.2293 7.76987 15.6689 7.67988 14.9333Z" fill="#217EC3"/>
<path d="M37.8556 14.6548C37.9612 13.8606 37.611 13.3099 37.033 13.4165C36.4549 13.5231 35.8896 14.199 35.8006 14.9355C35.7116 15.672 36.1185 16.2315 36.6809 16.1836C37.2433 16.1356 37.7499 15.4471 37.8556 14.6548Z" fill="#217EC3"/>
<path d="M34.0842 15.1379C34.1654 14.4288 33.7908 13.927 33.2098 14.0063C32.6288 14.0855 32.0938 14.6831 32.0282 15.3482C31.9627 16.0133 32.3833 16.5219 32.9447 16.4887C33.5061 16.4554 34.003 15.8461 34.0842 15.1379Z" fill="#217EC3"/>
<path d="M30.3112 15.4941C30.3689 14.8496 29.964 14.3762 29.3859 14.4299C28.8079 14.4837 28.2963 15.0168 28.2562 15.634C28.2161 16.2512 28.6475 16.7324 29.2099 16.7099C29.7723 16.6874 30.2545 16.1387 30.3112 15.4941Z" fill="#217EC3"/>
<path d="M26.5398 15.7215C26.5721 15.117 26.1407 14.6563 25.5617 14.6827C25.2771 14.7021 25.0096 14.8261 24.811 15.0309C24.6123 15.2357 24.4965 15.5068 24.4858 15.7919C24.4692 16.3787 24.9152 16.8521 25.4766 16.8394C26.038 16.8267 26.5075 16.3249 26.5398 15.7215Z" fill="#217EC3"/>
<path d="M22.7684 15.8199C22.7744 15.6812 22.7523 15.5428 22.7035 15.4129C22.6546 15.2831 22.5799 15.1644 22.4839 15.0642C22.388 14.9639 22.2727 14.8842 22.1451 14.8297C22.0175 14.7752 21.8801 14.7471 21.7414 14.7471C21.6026 14.7471 21.4653 14.7752 21.3376 14.8297C21.21 14.8842 21.0947 14.9639 20.9988 15.0642C20.9028 15.1644 20.8282 15.2831 20.7793 15.4129C20.7304 15.5428 20.7083 15.6812 20.7144 15.8199C20.7057 15.9601 20.7258 16.1006 20.7735 16.2327C20.8212 16.3648 20.8955 16.4858 20.9917 16.5881C21.0879 16.6904 21.2041 16.772 21.333 16.8278C21.4619 16.8835 21.6009 16.9123 21.7414 16.9123C21.8818 16.9123 22.0208 16.8835 22.1497 16.8278C22.2787 16.772 22.3948 16.6904 22.491 16.5881C22.5872 16.4858 22.6615 16.3648 22.7092 16.2327C22.7569 16.1006 22.777 15.9601 22.7684 15.8199Z" fill="#217EC3"/>
<path d="M18.843 12.4192C18.8107 11.8323 18.2796 11.3266 17.6634 11.2807C17.0472 11.2347 16.609 11.6719 16.6735 12.2793C16.7381 12.8867 17.2545 13.4051 17.8394 13.4364C17.9748 13.4459 18.1107 13.426 18.2377 13.378C18.3647 13.3301 18.4798 13.2552 18.5752 13.1586C18.6705 13.0619 18.7438 12.9458 18.79 12.8182C18.8362 12.6906 18.8543 12.5544 18.843 12.4192Z" fill="#217EC3"/>
<path d="M14.8623 12.1034C14.7811 11.4872 14.2021 10.9297 13.5859 10.8319C12.9697 10.7341 12.5785 11.1762 12.6919 11.8217C12.8054 12.4673 13.3551 13.0483 13.94 13.1109C14.5249 13.1735 14.9445 12.7196 14.8623 12.1034Z" fill="#217EC3"/>
<path d="M10.8805 11.531C10.7504 10.8658 10.1254 10.2272 9.51114 10.0892C8.89689 9.95133 8.55064 10.4022 8.71301 11.1104C8.87537 11.8185 9.45734 12.4797 10.0422 12.5717C10.6271 12.6636 11.0125 12.1951 10.8805 11.531Z" fill="#217EC3"/>
<path d="M6.89963 10.7017C6.72063 9.9652 6.04868 9.23456 5.43248 9.04775C4.81628 8.86093 4.51894 9.34704 4.72923 10.1413C4.93952 10.9355 5.55474 11.6896 6.14062 11.8177C6.7265 11.9458 7.0796 11.4372 6.89963 10.7017Z" fill="#217EC3"/>
<path d="M38.7506 10.1413C38.9619 9.34709 38.6645 8.86391 38.0473 9.04779C37.4302 9.23168 36.7602 9.96525 36.5802 10.7018C36.4002 11.4383 36.7553 11.94 37.3372 11.8178C37.9192 11.6955 38.5393 10.9375 38.7506 10.1413Z" fill="#217EC3"/>
<path d="M34.7698 11.1104C34.9321 10.4022 34.5878 9.95133 33.9707 10.0892C33.3535 10.2272 32.7295 10.8658 32.6013 11.531C32.4732 12.1961 32.8576 12.6655 33.4425 12.5717C34.0274 12.4778 34.6064 11.8175 34.7698 11.1104Z" fill="#217EC3"/>
<path d="M30.7837 11.8243C30.8971 11.1788 30.5069 10.7425 29.8897 10.8345C29.2725 10.9264 28.6954 11.4879 28.6182 12.106C28.5409 12.7242 28.9556 13.1819 29.5395 13.1154C30.1234 13.0489 30.6741 12.4689 30.7837 11.8243Z" fill="#217EC3"/>
<path d="M26.806 12.2793C26.8715 11.6748 26.4334 11.2347 25.8172 11.2806C25.201 11.3266 24.6698 11.8294 24.6366 12.4191C24.6252 12.5544 24.6433 12.6905 24.6895 12.8182C24.7358 12.9458 24.8091 13.0619 24.9044 13.1586C24.9997 13.2552 25.1148 13.3301 25.2418 13.378C25.3688 13.426 25.5047 13.4459 25.6401 13.4364C26.225 13.406 26.7415 12.8828 26.806 12.2793Z" fill="#217EC3"/>
<path d="M22.8249 12.4772C22.8405 11.8904 22.3564 11.4287 21.7402 11.4287C21.124 11.4287 20.6388 11.8914 20.6554 12.4772C20.6554 12.7649 20.7697 13.0408 20.9731 13.2442C21.1766 13.4477 21.4525 13.5619 21.7402 13.5619C22.0278 13.5619 22.3037 13.4477 22.5072 13.2442C22.7106 13.0408 22.8249 12.7649 22.8249 12.4772Z" fill="#217EC3"/>
<path d="M18.59 9.04756C18.5401 8.4607 17.9464 7.94427 17.2706 7.87384C16.5947 7.80342 16.133 8.22792 16.2299 8.83238C16.293 9.14436 16.4534 9.42829 16.688 9.6434C16.9226 9.8585 17.2194 9.9937 17.5356 10.0296C18.1665 10.0863 18.6399 9.63638 18.59 9.04756Z" fill="#217EC3"/>
<path d="M14.2589 8.57375C14.1366 7.95755 13.4764 7.36971 12.7995 7.23865C12.1227 7.10758 11.7295 7.5086 11.8997 8.15415C12.0699 8.79969 12.7008 9.41589 13.3306 9.51761C13.9605 9.61934 14.3821 9.18897 14.2589 8.57375Z" fill="#217EC3"/>
<path d="M9.92861 7.71519C9.73299 7.05008 9.00626 6.36933 8.32942 6.17371C7.65258 5.97809 7.32491 6.37618 7.56846 7.0853C7.81201 7.79442 8.4957 8.50354 9.12559 8.65025C9.75548 8.79697 10.1252 8.3803 9.92861 7.71519Z" fill="#217EC3"/>
<path d="M5.59857 6.47047C5.32959 5.73397 4.53538 4.94171 3.85951 4.67762C3.18365 4.41353 2.92152 4.83216 3.23842 5.62735C3.55532 6.42255 4.29085 7.24219 4.92075 7.44466C5.55064 7.64713 5.86852 7.206 5.59857 6.47047Z" fill="#217EC3"/>
<path d="M40.2418 5.6311C40.5577 4.83591 40.2975 4.42022 39.6207 4.68137C38.9438 4.94252 38.1535 5.73478 37.8816 6.47129C37.6097 7.2078 37.9296 7.65185 38.5585 7.44939C39.1874 7.24692 39.9239 6.42532 40.2418 5.6311Z" fill="#217EC3"/>
<path d="M35.9109 7.0853C36.1545 6.37618 35.8278 5.97809 35.15 6.17371C34.4721 6.36933 33.7464 7.054 33.5508 7.71519C33.3551 8.37639 33.7249 8.80773 34.3538 8.65514C34.9827 8.50256 35.6674 7.79344 35.9109 7.0853Z" fill="#217EC3"/>
<path d="M31.5808 8.15386C31.751 7.50832 31.3568 7.10828 30.68 7.23836C30.0031 7.36845 29.3429 7.95726 29.2187 8.57347C29.0945 9.18967 29.518 9.61905 30.1469 9.51733C30.7758 9.41561 31.4106 8.79843 31.5808 8.15386Z" fill="#217EC3"/>
<path d="M27.25 8.83636C27.3478 8.2319 26.8871 7.8123 26.2103 7.87783C25.5334 7.94336 24.9387 8.45686 24.8908 9.05155C24.8429 9.64623 25.3153 10.0903 25.9452 10.0384C26.262 10.0021 26.559 9.86609 26.7935 9.65005C27.028 9.43401 27.1878 9.14909 27.25 8.83636Z" fill="#217EC3"/>
<path d="M22.9197 9.13445C22.9442 8.54759 22.417 8.09082 21.7402 8.09082C21.0633 8.09082 20.5361 8.54857 20.5596 9.13445C20.5831 9.72033 21.1103 10.2104 21.7402 10.2104C22.3701 10.2104 22.8963 9.71935 22.9197 9.13445Z" fill="#217EC3"/>
<path d="M18.2336 5.67441C18.1681 5.08755 17.4952 4.56035 16.7371 4.47526C15.9791 4.39016 15.4783 4.79021 15.6074 5.39467C15.7365 5.99913 16.3958 6.56252 17.0902 6.63392C17.7847 6.70532 18.3001 6.26322 18.2336 5.67441Z" fill="#217EC3"/>
<path d="M13.4151 5.04382C13.2517 4.42762 12.4927 3.81337 11.7347 3.64318C10.9767 3.473 10.561 3.8388 10.7889 4.48337C11.0168 5.12794 11.7464 5.78228 12.4419 5.92215C13.1373 6.06202 13.5794 5.65611 13.4151 5.04382Z" fill="#217EC3"/>
<path d="M8.59547 3.89562C8.33529 3.23052 7.48924 2.5077 6.73121 2.2534C5.97319 1.99909 5.64552 2.35121 5.96927 3.05544C6.29302 3.75967 7.09702 4.52258 7.79245 4.73581C8.48788 4.94903 8.8576 4.56366 8.59547 3.89562Z" fill="#217EC3"/>
<path d="M3.7775 2.2394C3.41854 1.50289 2.48642 0.652926 1.7235 0.314504C0.960583 -0.0239177 0.728774 0.324285 1.1474 1.1185C1.56603 1.91272 2.44827 2.80181 3.1437 3.08154C3.83912 3.36128 4.13744 2.97493 3.7775 2.2394Z" fill="#217EC3"/>
<path d="M42.3254 1.1185C42.7479 0.324285 42.5073 -0.0239177 41.7483 0.314504C40.9893 0.652926 40.0581 1.50289 39.6992 2.2394C39.3402 2.97591 39.6376 3.36226 40.332 3.08154C41.0265 2.80083 41.9067 1.91272 42.3254 1.1185Z" fill="#217EC3"/>
<path d="M37.51 3.05853C37.8347 2.34941 37.51 2.00316 36.7491 2.25649C35.9881 2.50981 35.145 3.23459 34.8838 3.89871C34.6227 4.56284 34.9924 4.95017 35.6868 4.7389C36.3813 4.52763 37.1853 3.76667 37.51 3.05853Z" fill="#217EC3"/>
<path d="M32.6912 4.48212C32.9181 3.83658 32.5043 3.47273 31.7463 3.64194C30.9883 3.81115 30.2283 4.42441 30.065 5.04257C29.9016 5.66073 30.3437 6.06175 31.0431 5.92286C31.7424 5.78397 32.4642 5.12767 32.6912 4.48212Z" fill="#217EC3"/>
<path d="M27.8723 5.39445C28.0014 4.78999 27.5016 4.39092 26.7435 4.47504C25.9855 4.55916 25.3116 5.0844 25.2461 5.67419C25.1805 6.26398 25.698 6.70217 26.3895 6.6337C27.081 6.56524 27.7432 5.99794 27.8723 5.39445Z" fill="#217EC3"/>
<path d="M23.0568 5.79167C23.0891 5.20481 22.5023 4.75293 21.7442 4.75293C20.9862 4.75293 20.3993 5.20579 20.4306 5.79167C20.4619 6.37755 21.0488 6.86758 21.7442 6.86758C22.4397 6.86758 23.0216 6.37657 23.0568 5.79167Z" fill="#217EC3"/>
</g>
<defs>
<clipPath id="clip0_42_140">
<rect width="41.5916" height="37.9561" fill="white" transform="translate(0.943359 0.18457)"/>
</clipPath>
</defs>
</svg>
