<svg width="179" height="50" viewBox="0 0 179 50" fill="none" xmlns="http://www.w3.org/2000/svg">
<path d="M68.4106 40.2171C68.2292 40.2171 68.0791 40.1775 67.9601 40.0981C67.8411 40.0131 67.7589 39.897 67.7136 39.7496L66.6341 35.8821C66.7134 35.8368 66.8211 35.8141 66.9571 35.8141C67.0817 35.8141 67.1866 35.8425 67.2716 35.8991C67.3566 35.9558 67.4104 36.038 67.4331 36.1456L68.1471 38.9676L68.0621 39.3331L68.1046 39.3501L69.0311 36.0606C69.0537 35.987 69.0962 35.9275 69.1586 35.8821C69.2209 35.8368 69.2974 35.8141 69.3881 35.8141C69.4787 35.8141 69.5552 35.8368 69.6176 35.8821C69.6799 35.9275 69.7224 35.987 69.7451 36.0606L70.5526 39.0016L70.4506 39.3671L70.5016 39.3841L71.3346 36.1456C71.3572 36.038 71.4111 35.9558 71.4961 35.8991C71.5811 35.8425 71.6859 35.8141 71.8106 35.8141C71.9466 35.8141 72.0542 35.8368 72.1336 35.8821L71.0541 39.7496C71.0144 39.897 70.9294 40.0131 70.7991 40.0981C70.6687 40.1775 70.5129 40.2171 70.3316 40.2171L69.3116 36.5451L69.2776 36.5536L69.3626 36.8681L68.4106 40.2171ZM75.7153 40.2171C75.3696 40.2171 75.0551 40.152 74.7718 40.0216C74.4941 39.8913 74.276 39.7156 74.1173 39.4946C73.9643 39.268 73.8878 39.0158 73.8878 38.7381V37.3441C73.8878 37.0608 73.9643 36.803 74.1173 36.5706C74.276 36.3383 74.4941 36.1541 74.7718 36.0181C75.0495 35.8821 75.364 35.8141 75.7153 35.8141C76.0666 35.8141 76.3811 35.8821 76.6588 36.0181C76.9421 36.1541 77.1603 36.3383 77.3133 36.5706C77.472 36.803 77.5513 37.0608 77.5513 37.3441V38.7381C77.5513 39.0158 77.472 39.268 77.3133 39.4946C77.1546 39.7156 76.9365 39.8913 76.6588 40.0216C76.3811 40.152 76.0666 40.2171 75.7153 40.2171ZM75.7153 39.5796C76.0553 39.5796 76.3245 39.5003 76.5228 39.3416C76.7268 39.1773 76.8288 38.9648 76.8288 38.7041V37.3696C76.8288 37.0976 76.7268 36.8766 76.5228 36.7066C76.3245 36.5366 76.0553 36.4516 75.7153 36.4516C75.381 36.4516 75.1118 36.5366 74.9078 36.7066C74.7038 36.8766 74.6018 37.0976 74.6018 37.3696V38.7041C74.6018 38.9648 74.701 39.1773 74.8993 39.3416C75.1033 39.5003 75.3753 39.5796 75.7153 39.5796ZM81.7459 36.4686C81.4286 36.4686 81.1651 36.565 80.9554 36.7576C80.7458 36.9446 80.6409 37.1741 80.6409 37.4461V39.6731C80.6409 39.8601 80.5786 39.999 80.4539 40.0896C80.3349 40.1746 80.1508 40.2171 79.9014 40.2171V36.4431C79.9014 36.0238 80.1394 35.8141 80.6154 35.8141V36.3326C80.5248 36.429 80.4624 36.514 80.4284 36.5876L80.4624 36.6216C80.8251 36.0833 81.2784 35.8141 81.8224 35.8141C82.0264 35.8141 82.1823 35.8651 82.2899 35.9671C82.3976 36.0635 82.4514 36.1825 82.4514 36.3241C82.4514 36.4261 82.4259 36.5168 82.3749 36.5961C82.2163 36.5111 82.0066 36.4686 81.7459 36.4686ZM88.2508 40.0301C88.2054 40.0868 88.1488 40.1321 88.0808 40.1661C88.0128 40.2001 87.9363 40.2171 87.8513 40.2171C87.7606 40.2171 87.6813 40.2001 87.6133 40.1661C87.5453 40.1321 87.4829 40.0698 87.4263 39.9791L86.0748 37.8626L85.4458 38.4236V39.6816C85.4458 40.0386 85.2021 40.2171 84.7148 40.2171V34.7261C84.7148 34.3181 84.9613 34.1141 85.4543 34.1141L85.4458 37.6671L87.5028 35.8226C87.6671 35.9756 87.7493 36.106 87.7493 36.2136C87.7493 36.293 87.7294 36.3581 87.6898 36.4091C87.6558 36.4545 87.5878 36.5225 87.4858 36.6131L86.5338 37.4546L88.2508 40.0301ZM95.9088 40.2171C95.5631 40.2171 95.2543 40.152 94.9823 40.0216C94.7103 39.8856 94.4978 39.7015 94.3448 39.4691C94.1918 39.2311 94.1153 38.9648 94.1153 38.6701V37.4121C94.1153 37.1118 94.1946 36.8398 94.3533 36.5961C94.5176 36.3525 94.7358 36.1626 95.0078 36.0266C95.2855 35.885 95.5858 35.8141 95.9088 35.8141C96.2318 35.8141 96.5265 35.8821 96.7928 36.0181C97.0648 36.1541 97.2773 36.3411 97.4303 36.5791C97.589 36.8171 97.6683 37.0863 97.6683 37.3866V37.9306C97.6683 38.0213 97.6343 38.0978 97.5663 38.1601C97.4983 38.2225 97.4161 38.2536 97.3198 38.2536H94.8378V38.6361C94.8378 38.9251 94.9285 39.1575 95.1098 39.3331C95.2968 39.5088 95.5631 39.5966 95.9088 39.5966C96.2545 39.5966 96.518 39.5201 96.6993 39.3671C96.8806 39.2141 96.9713 39.0073 96.9713 38.7466C97.1413 38.7353 97.283 38.7693 97.3963 38.8486C97.5153 38.9223 97.5748 39.0328 97.5748 39.1801C97.5748 39.3615 97.4955 39.5315 97.3368 39.6901C97.1838 39.8488 96.9798 39.9763 96.7248 40.0726C96.4698 40.169 96.1978 40.2171 95.9088 40.2171ZM96.9798 37.6756V37.3866C96.9798 37.1033 96.8806 36.8738 96.6823 36.6981C96.4896 36.5168 96.2318 36.4261 95.9088 36.4261C95.5858 36.4261 95.3251 36.5168 95.1268 36.6981C94.9341 36.8738 94.8378 37.1033 94.8378 37.3866V37.6756H96.9798ZM101.43 40.2171C101.345 40.2171 101.268 40.1945 101.2 40.1491C101.132 40.1038 101.084 40.0471 101.056 39.9791L99.4237 35.8736C99.4577 35.8566 99.5058 35.8425 99.5682 35.8311C99.6305 35.8198 99.6872 35.8141 99.7382 35.8141C99.8628 35.8141 99.9733 35.8425 100.07 35.8991C100.166 35.9558 100.231 36.038 100.265 36.1456L101.387 39.1971L101.268 39.5371L101.311 39.5541L102.586 36.1456C102.62 36.038 102.685 35.9558 102.781 35.8991C102.878 35.8425 102.985 35.8141 103.104 35.8141C103.155 35.8141 103.212 35.8198 103.274 35.8311C103.337 35.8425 103.388 35.8566 103.427 35.8736L101.795 39.9791C101.767 40.0471 101.719 40.1038 101.651 40.1491C101.588 40.1945 101.515 40.2171 101.43 40.2171ZM106.922 40.2171C106.576 40.2171 106.267 40.152 105.995 40.0216C105.723 39.8856 105.511 39.7015 105.358 39.4691C105.205 39.2311 105.128 38.9648 105.128 38.6701V37.4121C105.128 37.1118 105.207 36.8398 105.366 36.5961C105.53 36.3525 105.749 36.1626 106.021 36.0266C106.298 35.885 106.599 35.8141 106.922 35.8141C107.245 35.8141 107.539 35.8821 107.806 36.0181C108.078 36.1541 108.29 36.3411 108.443 36.5791C108.602 36.8171 108.681 37.0863 108.681 37.3866V37.9306C108.681 38.0213 108.647 38.0978 108.579 38.1601C108.511 38.2225 108.429 38.2536 108.333 38.2536H105.851V38.6361C105.851 38.9251 105.941 39.1575 106.123 39.3331C106.31 39.5088 106.576 39.5966 106.922 39.5966C107.267 39.5966 107.531 39.5201 107.712 39.3671C107.893 39.2141 107.984 39.0073 107.984 38.7466C108.154 38.7353 108.296 38.7693 108.409 38.8486C108.528 38.9223 108.588 39.0328 108.588 39.1801C108.588 39.3615 108.508 39.5315 108.35 39.6901C108.197 39.8488 107.993 39.9763 107.738 40.0726C107.483 40.169 107.211 40.2171 106.922 40.2171ZM107.993 37.6756V37.3866C107.993 37.1033 107.893 36.8738 107.695 36.6981C107.502 36.5168 107.245 36.4261 106.922 36.4261C106.599 36.4261 106.338 36.5168 106.14 36.6981C105.947 36.8738 105.851 37.1033 105.851 37.3866V37.6756H107.993ZM112.875 36.4686C112.558 36.4686 112.295 36.565 112.085 36.7576C111.875 36.9446 111.77 37.1741 111.77 37.4461V39.6731C111.77 39.8601 111.708 39.999 111.583 40.0896C111.464 40.1746 111.28 40.2171 111.031 40.2171V36.4431C111.031 36.0238 111.269 35.8141 111.745 35.8141V36.3326C111.654 36.429 111.592 36.514 111.558 36.5876L111.592 36.6216C111.955 36.0833 112.408 35.8141 112.952 35.8141C113.156 35.8141 113.312 35.8651 113.419 35.9671C113.527 36.0635 113.581 36.1825 113.581 36.3241C113.581 36.4261 113.555 36.5168 113.504 36.5961C113.346 36.5111 113.136 36.4686 112.875 36.4686ZM115.879 41.9086C115.528 41.9086 115.343 41.7046 115.326 41.2966C115.496 41.3193 115.618 41.3306 115.692 41.3306C115.941 41.3306 116.14 41.257 116.287 41.1096C116.44 40.9623 116.596 40.7073 116.754 40.3446L116.924 39.9621L115.25 35.8736C115.29 35.8566 115.341 35.8425 115.403 35.8311C115.471 35.8198 115.528 35.8141 115.573 35.8141C115.692 35.8198 115.8 35.8538 115.896 35.9161C115.992 35.9728 116.06 36.0493 116.1 36.1456L117.239 39.0526L117.12 39.3926L117.171 39.4181L118.463 36.1456C118.503 36.0436 118.568 35.9643 118.658 35.9076C118.755 35.8453 118.862 35.8141 118.981 35.8141C119.032 35.8141 119.089 35.8198 119.151 35.8311C119.219 35.8425 119.27 35.8566 119.304 35.8736L117.392 40.5571C117.205 41.0105 116.995 41.3476 116.763 41.5686C116.531 41.7953 116.236 41.9086 115.879 41.9086ZM122.836 40.2171C122.654 40.2171 122.504 40.1775 122.385 40.0981C122.266 40.0131 122.184 39.897 122.139 39.7496L121.059 35.8821C121.139 35.8368 121.246 35.8141 121.382 35.8141C121.507 35.8141 121.612 35.8425 121.697 35.8991C121.782 35.9558 121.836 36.038 121.858 36.1456L122.572 38.9676L122.487 39.3331L122.53 39.3501L123.456 36.0606C123.479 35.987 123.521 35.9275 123.584 35.8821C123.646 35.8368 123.723 35.8141 123.813 35.8141C123.904 35.8141 123.98 35.8368 124.043 35.8821C124.105 35.9275 124.148 35.987 124.17 36.0606L124.978 39.0016L124.876 39.3671L124.927 39.3841L125.76 36.1456C125.782 36.038 125.836 35.9558 125.921 35.8991C126.006 35.8425 126.111 35.8141 126.236 35.8141C126.372 35.8141 126.479 35.8368 126.559 35.8821L125.479 39.7496C125.44 39.897 125.355 40.0131 125.224 40.0981C125.094 40.1775 124.938 40.2171 124.757 40.2171L123.737 36.5451L123.703 36.5536L123.788 36.8681L122.836 40.2171ZM128.783 34.7431C128.783 34.5391 128.845 34.3833 128.97 34.2756C129.095 34.168 129.279 34.1141 129.522 34.1141V36.3496C129.443 36.4403 129.381 36.5196 129.335 36.5876L129.369 36.6216C129.545 36.3836 129.766 36.191 130.032 36.0436C130.299 35.8906 130.588 35.8141 130.899 35.8141C131.358 35.8141 131.721 35.9501 131.987 36.2221C132.254 36.4941 132.387 36.8455 132.387 37.2761V39.6731C132.387 39.8601 132.325 39.999 132.2 40.0896C132.081 40.1746 131.897 40.2171 131.647 40.2171V37.3526C131.647 37.0806 131.571 36.8653 131.418 36.7066C131.265 36.548 131.033 36.4686 130.721 36.4686C130.511 36.4686 130.313 36.514 130.126 36.6046C129.945 36.6896 129.797 36.8086 129.684 36.9616C129.576 37.109 129.522 37.2705 129.522 37.4461V39.6731C129.522 39.8601 129.46 39.999 129.335 40.0896C129.216 40.1746 129.032 40.2171 128.783 40.2171V34.7431ZM136.566 40.2171C136.221 40.2171 135.912 40.152 135.64 40.0216C135.368 39.8856 135.155 39.7015 135.002 39.4691C134.849 39.2311 134.773 38.9648 134.773 38.6701V37.4121C134.773 37.1118 134.852 36.8398 135.011 36.5961C135.175 36.3525 135.393 36.1626 135.665 36.0266C135.943 35.885 136.243 35.8141 136.566 35.8141C136.889 35.8141 137.184 35.8821 137.45 36.0181C137.722 36.1541 137.935 36.3411 138.088 36.5791C138.247 36.8171 138.326 37.0863 138.326 37.3866V37.9306C138.326 38.0213 138.292 38.0978 138.224 38.1601C138.156 38.2225 138.074 38.2536 137.977 38.2536H135.495V38.6361C135.495 38.9251 135.586 39.1575 135.767 39.3331C135.954 39.5088 136.221 39.5966 136.566 39.5966C136.912 39.5966 137.176 39.5201 137.357 39.3671C137.538 39.2141 137.629 39.0073 137.629 38.7466C137.799 38.7353 137.941 38.7693 138.054 38.8486C138.173 38.9223 138.232 39.0328 138.232 39.1801C138.232 39.3615 138.153 39.5315 137.994 39.6901C137.841 39.8488 137.637 39.9763 137.382 40.0726C137.127 40.169 136.855 40.2171 136.566 40.2171ZM137.637 37.6756V37.3866C137.637 37.1033 137.538 36.8738 137.34 36.6981C137.147 36.5168 136.889 36.4261 136.566 36.4261C136.243 36.4261 135.983 36.5168 135.784 36.6981C135.592 36.8738 135.495 37.1033 135.495 37.3866V37.6756H137.637ZM142.52 36.4686C142.203 36.4686 141.939 36.565 141.73 36.7576C141.52 36.9446 141.415 37.1741 141.415 37.4461V39.6731C141.415 39.8601 141.353 39.999 141.228 40.0896C141.109 40.1746 140.925 40.2171 140.676 40.2171V36.4431C140.676 36.0238 140.914 35.8141 141.39 35.8141V36.3326C141.299 36.429 141.237 36.514 141.203 36.5876L141.237 36.6216C141.599 36.0833 142.053 35.8141 142.597 35.8141C142.801 35.8141 142.956 35.8651 143.064 35.9671C143.172 36.0635 143.226 36.1825 143.226 36.3241C143.226 36.4261 143.2 36.5168 143.149 36.5961C142.99 36.5111 142.781 36.4686 142.52 36.4686ZM146.816 40.2171C146.47 40.2171 146.161 40.152 145.889 40.0216C145.617 39.8856 145.405 39.7015 145.252 39.4691C145.099 39.2311 145.022 38.9648 145.022 38.6701V37.4121C145.022 37.1118 145.101 36.8398 145.26 36.5961C145.424 36.3525 145.643 36.1626 145.915 36.0266C146.192 35.885 146.493 35.8141 146.816 35.8141C147.139 35.8141 147.433 35.8821 147.7 36.0181C147.972 36.1541 148.184 36.3411 148.337 36.5791C148.496 36.8171 148.575 37.0863 148.575 37.3866V37.9306C148.575 38.0213 148.541 38.0978 148.473 38.1601C148.405 38.2225 148.323 38.2536 148.227 38.2536H145.745V38.6361C145.745 38.9251 145.835 39.1575 146.017 39.3331C146.204 39.5088 146.47 39.5966 146.816 39.5966C147.161 39.5966 147.425 39.5201 147.606 39.3671C147.787 39.2141 147.878 39.0073 147.878 38.7466C148.048 38.7353 148.19 38.7693 148.303 38.8486C148.422 38.9223 148.482 39.0328 148.482 39.1801C148.482 39.3615 148.402 39.5315 148.244 39.6901C148.091 39.8488 147.887 39.9763 147.632 40.0726C147.377 40.169 147.105 40.2171 146.816 40.2171ZM147.887 37.6756V37.3866C147.887 37.1033 147.787 36.8738 147.589 36.6981C147.396 36.5168 147.139 36.4261 146.816 36.4261C146.493 36.4261 146.232 36.5168 146.034 36.6981C145.841 36.8738 145.745 37.1033 145.745 37.3866V37.6756H147.887Z" fill="#4F4F50"/>
<path d="M59.0851 17.7475C59.0851 19.0435 59.3731 20.1875 59.9491 21.1795C60.5411 22.1715 61.3091 22.9475 62.2531 23.5075C63.1971 24.0675 64.2211 24.3475 65.3251 24.3475C66.1251 24.3475 66.8531 24.2435 67.5091 24.0355C68.1811 23.8275 68.7891 23.5395 69.3331 23.1715C69.8771 22.7875 70.3411 22.3475 70.7251 21.8515V24.5395C70.0211 25.1635 69.2531 25.6275 68.4211 25.9315C67.5891 26.2355 66.5571 26.3875 65.3251 26.3875C64.1571 26.3875 63.0611 26.1795 62.0371 25.7635C61.0291 25.3315 60.1411 24.7315 59.3731 23.9635C58.6051 23.1795 58.0051 22.2595 57.5731 21.2035C57.1411 20.1475 56.9251 18.9955 56.9251 17.7475C56.9251 16.4995 57.1411 15.3475 57.5731 14.2915C58.0051 13.2355 58.6051 12.3235 59.3731 11.5555C60.1411 10.7715 61.0291 10.1715 62.0371 9.75546C63.0611 9.32346 64.1571 9.10746 65.3251 9.10746C66.5571 9.10746 67.5891 9.25946 68.4211 9.56346C69.2531 9.86746 70.0211 10.3315 70.7251 10.9555V13.6435C70.3411 13.1475 69.8771 12.7155 69.3331 12.3475C68.7891 11.9635 68.1811 11.6675 67.5091 11.4595C66.8531 11.2515 66.1251 11.1475 65.3251 11.1475C64.2211 11.1475 63.1971 11.4275 62.2531 11.9875C61.3091 12.5475 60.5411 13.3235 59.9491 14.3155C59.3731 15.2915 59.0851 16.4355 59.0851 17.7475ZM72.7788 20.6275C72.7788 19.5075 73.0268 18.5155 73.5228 17.6515C74.0348 16.7875 74.7228 16.1075 75.5868 15.6115C76.4508 15.1155 77.4188 14.8675 78.4908 14.8675C79.5788 14.8675 80.5468 15.1155 81.3948 15.6115C82.2588 16.1075 82.9388 16.7875 83.4348 17.6515C83.9468 18.5155 84.2028 19.5075 84.2028 20.6275C84.2028 21.7315 83.9468 22.7235 83.4348 23.6035C82.9388 24.4675 82.2588 25.1475 81.3948 25.6435C80.5468 26.1395 79.5788 26.3875 78.4908 26.3875C77.4188 26.3875 76.4508 26.1395 75.5868 25.6435C74.7228 25.1475 74.0348 24.4675 73.5228 23.6035C73.0268 22.7235 72.7788 21.7315 72.7788 20.6275ZM74.7228 20.6275C74.7228 21.3955 74.8828 22.0755 75.2028 22.6675C75.5388 23.2595 75.9868 23.7315 76.5468 24.0835C77.1228 24.4195 77.7708 24.5875 78.4908 24.5875C79.2108 24.5875 79.8508 24.4195 80.4108 24.0835C80.9868 23.7315 81.4348 23.2595 81.7548 22.6675C82.0908 22.0755 82.2588 21.3955 82.2588 20.6275C82.2588 19.8595 82.0908 19.1795 81.7548 18.5875C81.4348 17.9795 80.9868 17.5075 80.4108 17.1715C79.8508 16.8355 79.2108 16.6675 78.4908 16.6675C77.7708 16.6675 77.1228 16.8355 76.5468 17.1715C75.9868 17.5075 75.5388 17.9795 75.2028 18.5875C74.8828 19.1795 74.7228 19.8595 74.7228 20.6275ZM87.1284 21.0595C87.5124 21.7315 87.9124 22.3235 88.3284 22.8355C88.7604 23.3475 89.2404 23.7475 89.7684 24.0355C90.2964 24.3235 90.8964 24.4675 91.5684 24.4675C92.4644 24.4675 93.1844 24.2195 93.7284 23.7235C94.2724 23.2275 94.5444 22.5955 94.5444 21.8275C94.5444 21.0755 94.3684 20.4755 94.0164 20.0275C93.6644 19.5795 93.2004 19.2195 92.6244 18.9475C92.0644 18.6595 91.4644 18.4035 90.8244 18.1795C90.4084 18.0355 89.9444 17.8515 89.4324 17.6275C88.9204 17.3875 88.4324 17.0915 87.9684 16.7395C87.5044 16.3715 87.1204 15.9235 86.8164 15.3955C86.5284 14.8675 86.3844 14.2195 86.3844 13.4515C86.3844 12.6195 86.5924 11.8755 87.0084 11.2195C87.4244 10.5635 88.0004 10.0515 88.7364 9.68346C89.4724 9.29946 90.3124 9.10746 91.2564 9.10746C92.1684 9.10746 92.9604 9.28346 93.6324 9.63546C94.3204 9.97146 94.9044 10.4115 95.3844 10.9555C95.8644 11.4835 96.2404 12.0435 96.5124 12.6355L94.7604 13.6435C94.5524 13.2275 94.2884 12.8195 93.9684 12.4195C93.6484 12.0195 93.2564 11.6915 92.7924 11.4355C92.3444 11.1795 91.7924 11.0515 91.1364 11.0515C90.2244 11.0515 89.5604 11.2755 89.1444 11.7235C88.7284 12.1555 88.5204 12.6435 88.5204 13.1875C88.5204 13.6515 88.6404 14.0835 88.8804 14.4835C89.1204 14.8675 89.5204 15.2355 90.0804 15.5875C90.6564 15.9235 91.4324 16.2595 92.4084 16.5955C92.8564 16.7555 93.3284 16.9635 93.8244 17.2195C94.3204 17.4755 94.7764 17.8035 95.1924 18.2035C95.6244 18.5875 95.9764 19.0595 96.2484 19.6195C96.5204 20.1635 96.6564 20.8195 96.6564 21.5875C96.6564 22.3235 96.5124 22.9875 96.2244 23.5795C95.9524 24.1715 95.5684 24.6755 95.0724 25.0915C94.5924 25.5075 94.0404 25.8275 93.4164 26.0515C92.8084 26.2755 92.1684 26.3875 91.4964 26.3875C90.5844 26.3875 89.7364 26.1955 88.9524 25.8115C88.1844 25.4115 87.5044 24.8915 86.9124 24.2515C86.3364 23.5955 85.8644 22.8995 85.4964 22.1635L87.1284 21.0595ZM100.877 31.4275H98.9568V15.1075H100.877V31.4275ZM110.117 20.6275C110.117 21.8115 109.869 22.8355 109.373 23.6995C108.877 24.5635 108.213 25.2275 107.381 25.6915C106.565 26.1555 105.653 26.3875 104.645 26.3875C103.733 26.3875 102.925 26.1555 102.221 25.6915C101.533 25.2275 100.989 24.5635 100.589 23.6995C100.205 22.8355 100.013 21.8115 100.013 20.6275C100.013 19.4275 100.205 18.4035 100.589 17.5555C100.989 16.6915 101.533 16.0275 102.221 15.5635C102.925 15.0995 103.733 14.8675 104.645 14.8675C105.653 14.8675 106.565 15.0995 107.381 15.5635C108.213 16.0275 108.877 16.6915 109.373 17.5555C109.869 18.4035 110.117 19.4275 110.117 20.6275ZM108.173 20.6275C108.173 19.7795 107.997 19.0595 107.645 18.4675C107.309 17.8755 106.853 17.4275 106.277 17.1235C105.717 16.8195 105.093 16.6675 104.405 16.6675C103.845 16.6675 103.293 16.8195 102.749 17.1235C102.205 17.4275 101.757 17.8755 101.405 18.4675C101.053 19.0595 100.877 19.7795 100.877 20.6275C100.877 21.4755 101.053 22.1955 101.405 22.7875C101.757 23.3795 102.205 23.8275 102.749 24.1315C103.293 24.4355 103.845 24.5875 104.405 24.5875C105.093 24.5875 105.717 24.4355 106.277 24.1315C106.853 23.8275 107.309 23.3795 107.645 22.7875C107.997 22.1955 108.173 21.4755 108.173 20.6275ZM114.228 7.42746V26.1475H112.308V7.42746H114.228ZM119.388 19.4275C119.388 18.5155 119.188 17.8275 118.788 17.3635C118.404 16.8995 117.82 16.6675 117.036 16.6675C116.476 16.6675 115.98 16.7875 115.548 17.0275C115.132 17.2675 114.804 17.5955 114.564 18.0115C114.34 18.4275 114.228 18.8995 114.228 19.4275H113.604C113.604 18.5475 113.772 17.7715 114.108 17.0995C114.444 16.4115 114.9 15.8675 115.476 15.4675C116.068 15.0675 116.748 14.8675 117.516 14.8675C118.284 14.8675 118.948 15.0275 119.508 15.3475C120.084 15.6675 120.524 16.1475 120.828 16.7875C121.148 17.4275 121.308 18.2275 121.308 19.1875V26.1475H119.388V19.4275ZM128.734 26.3875C127.71 26.3875 126.798 26.1475 125.998 25.6675C125.214 25.1715 124.598 24.4915 124.15 23.6275C123.718 22.7635 123.502 21.7635 123.502 20.6275C123.502 19.4755 123.726 18.4675 124.174 17.6035C124.638 16.7395 125.278 16.0675 126.094 15.5875C126.926 15.1075 127.886 14.8675 128.974 14.8675C130.062 14.8675 130.99 15.0995 131.758 15.5635C132.542 16.0115 133.142 16.6595 133.558 17.5075C133.974 18.3555 134.182 19.3635 134.182 20.5315C134.182 20.6435 134.174 20.7635 134.158 20.8915C134.158 21.0035 134.158 21.0755 134.158 21.1075H124.726V19.4755H132.646L131.878 20.5795C131.926 20.4995 131.974 20.3795 132.022 20.2195C132.07 20.0435 132.094 19.8995 132.094 19.7875C132.094 19.1315 131.958 18.5635 131.686 18.0835C131.43 17.6035 131.07 17.2275 130.606 16.9555C130.142 16.6835 129.598 16.5475 128.974 16.5475C128.238 16.5475 127.606 16.7075 127.078 17.0275C126.566 17.3315 126.166 17.7795 125.878 18.3715C125.606 18.9475 125.462 19.6595 125.446 20.5075C125.446 21.3715 125.582 22.1075 125.854 22.7155C126.126 23.3235 126.526 23.7875 127.054 24.1075C127.582 24.4275 128.222 24.5875 128.974 24.5875C129.726 24.5875 130.39 24.4275 130.966 24.1075C131.542 23.7715 132.03 23.2675 132.43 22.5955L133.99 23.5795C133.414 24.5075 132.686 25.2115 131.806 25.6915C130.942 26.1555 129.918 26.3875 128.734 26.3875ZM138.277 15.1075V26.1475H136.357V15.1075H138.277ZM141.613 17.2195C141.357 17.0275 141.125 16.8915 140.917 16.8115C140.709 16.7155 140.445 16.6675 140.125 16.6675C139.645 16.6675 139.269 16.7875 138.997 17.0275C138.725 17.2675 138.533 17.5955 138.421 18.0115C138.325 18.4275 138.277 18.8995 138.277 19.4275H137.413C137.413 18.5475 137.565 17.7715 137.869 17.0995C138.189 16.4115 138.597 15.8675 139.093 15.4675C139.589 15.0675 140.093 14.8675 140.605 14.8675C141.005 14.8675 141.373 14.9235 141.709 15.0355C142.061 15.1315 142.381 15.3315 142.669 15.6355L141.613 17.2195ZM148.048 26.3875C147.024 26.3875 146.112 26.1475 145.312 25.6675C144.528 25.1715 143.912 24.4915 143.464 23.6275C143.032 22.7635 142.816 21.7635 142.816 20.6275C142.816 19.4755 143.04 18.4675 143.488 17.6035C143.952 16.7395 144.592 16.0675 145.408 15.5875C146.24 15.1075 147.2 14.8675 148.288 14.8675C149.376 14.8675 150.304 15.0995 151.072 15.5635C151.856 16.0115 152.456 16.6595 152.872 17.5075C153.288 18.3555 153.496 19.3635 153.496 20.5315C153.496 20.6435 153.488 20.7635 153.472 20.8915C153.472 21.0035 153.472 21.0755 153.472 21.1075H144.04V19.4755H151.96L151.192 20.5795C151.24 20.4995 151.288 20.3795 151.336 20.2195C151.384 20.0435 151.408 19.8995 151.408 19.7875C151.408 19.1315 151.272 18.5635 151 18.0835C150.744 17.6035 150.384 17.2275 149.92 16.9555C149.456 16.6835 148.912 16.5475 148.288 16.5475C147.552 16.5475 146.92 16.7075 146.392 17.0275C145.88 17.3315 145.48 17.7795 145.192 18.3715C144.92 18.9475 144.776 19.6595 144.76 20.5075C144.76 21.3715 144.896 22.1075 145.168 22.7155C145.44 23.3235 145.84 23.7875 146.368 24.1075C146.896 24.4275 147.536 24.5875 148.288 24.5875C149.04 24.5875 149.704 24.4275 150.28 24.1075C150.856 23.7715 151.344 23.2675 151.744 22.5955L153.304 23.5795C152.728 24.5075 152 25.2115 151.12 25.6915C150.256 26.1555 149.232 26.3875 148.048 26.3875Z" fill="#4F4F50"/>
<g clip-path="url(#clip0_14_1279)">
<path d="M20.2336 37.6505C20.3002 37.0636 19.7857 36.6225 19.0912 36.6929C18.3968 36.7634 17.7366 37.3267 17.6075 37.9302C17.4783 38.5337 17.9782 38.9338 18.7372 38.8496C19.4962 38.7655 20.1662 38.2422 20.2336 37.6505Z" fill="#217EC3"/>
<path d="M15.4151 38.2837C15.5795 37.6684 15.1374 37.2645 14.4419 37.4034C13.7465 37.5423 13.0169 38.1976 12.789 38.8421C12.5611 39.4867 12.9758 39.8506 13.7348 39.6823C14.4938 39.5141 15.2518 38.8999 15.4151 38.2837Z" fill="#217EC3"/>
<path d="M10.5954 39.4303C10.8576 38.7652 10.4869 38.3789 9.79241 38.5901C9.09796 38.8014 8.29494 39.5624 7.96924 40.2705C7.64353 40.9787 7.96924 41.3259 8.73117 41.0716C9.49311 40.8173 10.3353 40.0974 10.5954 39.4303Z" fill="#217EC3"/>
<path d="M5.77737 41.0886C6.13731 40.3521 5.83801 39.9648 5.14356 40.2465C4.44911 40.5282 3.5786 41.4202 3.15118 42.2086C2.72375 42.9969 2.96925 43.3519 3.72825 43.0135C4.48726 42.6751 5.41841 41.8251 5.77737 41.0886Z" fill="#217EC3"/>
<path d="M41.7029 41.0888C42.0618 41.8253 42.994 42.6743 43.752 43.0137C44.51 43.3531 44.7516 43.0039 44.3291 42.2087C43.9065 41.4135 43.0321 40.5264 42.3357 40.2467C41.6393 39.9669 41.3429 40.3523 41.7029 41.0888Z" fill="#217EC3"/>
<path d="M39.51 40.2703C39.1853 39.5621 38.3823 38.8031 37.6869 38.5899C36.9914 38.3767 36.6217 38.765 36.8838 39.4301C37.146 40.0952 37.991 40.818 38.75 41.0752C39.5091 41.3325 39.8348 40.9774 39.51 40.2703Z" fill="#217EC3"/>
<path d="M34.691 38.8445C34.4641 38.1999 33.7334 37.5456 33.038 37.4057C32.3426 37.2658 31.9005 37.6688 32.0599 38.286C32.2193 38.9032 32.9832 39.5164 33.7412 39.6866C34.4993 39.8568 34.9179 39.4891 34.691 38.8445Z" fill="#217EC3"/>
<path d="M29.872 37.933C29.7429 37.3295 29.0846 36.7652 28.3892 36.6957C27.6937 36.6263 27.1793 37.0645 27.2458 37.6513C27.3123 38.2382 27.9852 38.7654 28.7432 38.8505C29.5013 38.9356 30.0021 38.5375 29.872 37.933Z" fill="#217EC3"/>
<path d="M25.0568 37.5359C25.0255 36.949 24.4387 36.46 23.7442 36.46C23.0498 36.46 22.4619 36.949 22.4306 37.5359C22.3993 38.1227 22.9852 38.5746 23.7442 38.5746C24.5032 38.5746 25.0852 38.1217 25.0568 37.5359Z" fill="#217EC3"/>
<path d="M20.5898 34.2808C20.6397 33.694 20.1643 33.2421 19.5354 33.293C19.2191 33.3292 18.9224 33.4646 18.6878 33.6799C18.4533 33.8951 18.2929 34.1791 18.2296 34.4911C18.1318 35.0946 18.5925 35.5152 19.2703 35.4497C19.9482 35.3841 20.5399 34.8706 20.5898 34.2808Z" fill="#217EC3"/>
<path d="M16.2589 34.7537C16.3821 34.1375 15.9596 33.7081 15.3306 33.8099C14.7017 33.9116 14.0699 34.5288 13.8997 35.1733C13.7295 35.8179 14.1227 36.2189 14.7995 36.0888C15.4764 35.9587 16.1366 35.3699 16.2589 34.7537Z" fill="#217EC3"/>
<path d="M11.9286 35.6128C12.1242 34.9477 11.7545 34.5193 11.1256 34.6728C10.4967 34.8264 9.81201 35.5345 9.56846 36.2427C9.32491 36.9508 9.65258 37.3499 10.3294 37.1543C11.0063 36.9587 11.733 36.2818 11.9286 35.6128Z" fill="#217EC3"/>
<path d="M7.59842 36.8575C7.86838 36.121 7.54952 35.676 6.9206 35.8794C6.29168 36.0829 5.55126 36.9035 5.23827 37.6977C4.92528 38.4919 5.18154 38.9076 5.85936 38.6465C6.53718 38.3853 7.32944 37.594 7.59842 36.8575Z" fill="#217EC3"/>
<path d="M42.2421 37.6974C41.9242 36.9032 41.1887 36.0816 40.5588 35.8791C39.9289 35.6766 39.612 36.1207 39.8819 36.8572C40.1519 37.5937 40.9441 38.385 41.621 38.6461C42.2978 38.9073 42.558 38.4926 42.2421 37.6974Z" fill="#217EC3"/>
<path d="M37.9109 36.2431C37.6673 35.5349 36.9836 34.8248 36.3537 34.6732C35.7238 34.5216 35.3541 34.9481 35.5507 35.6132C35.7473 36.2783 36.474 36.959 37.1499 37.1546C37.8258 37.3503 38.1544 36.9522 37.9109 36.2431Z" fill="#217EC3"/>
<path d="M33.581 35.1733C33.4108 34.5288 32.779 33.9116 32.1491 33.8099C31.5192 33.7081 31.0976 34.1375 31.2209 34.7537C31.3441 35.3699 32.0034 35.9578 32.6802 36.0888C33.3571 36.2199 33.7512 35.8189 33.581 35.1733Z" fill="#217EC3"/>
<path d="M29.2497 34.4912C29.1866 34.1793 29.0263 33.8954 28.7919 33.6802C28.5576 33.4649 28.2611 33.3294 27.945 33.293C27.3151 33.2421 26.8407 33.692 26.8906 34.2809C26.9404 34.8697 27.5332 35.3842 28.21 35.4497C28.8869 35.5152 29.3475 35.0946 29.2497 34.4912Z" fill="#217EC3"/>
<path d="M24.9197 34.1931C24.8963 33.6062 24.3691 33.1172 23.7402 33.1172C23.1112 33.1172 22.5831 33.6062 22.5596 34.1931C22.5361 34.78 23.0633 35.2367 23.7402 35.2367C24.417 35.2367 24.9442 34.779 24.9197 34.1931Z" fill="#217EC3"/>
<path d="M20.843 30.9082C20.8543 30.7729 20.8362 30.6368 20.79 30.5092C20.7438 30.3815 20.6705 30.2654 20.5752 30.1688C20.4798 30.0722 20.3647 29.9973 20.2377 29.9493C20.1107 29.9014 19.9749 29.8815 19.8394 29.891C19.2526 29.9213 18.7381 30.4446 18.6736 31.0481C18.609 31.6516 19.0462 32.0927 19.6634 32.0467C20.2806 32.0007 20.8107 31.498 20.843 30.9082Z" fill="#217EC3"/>
<path d="M16.8622 31.2248C16.9443 30.6086 16.5247 30.1489 15.9398 30.2154C15.3549 30.2819 14.8062 30.86 14.6888 31.5045C14.5715 32.1491 14.9666 32.5863 15.5828 32.4944C16.199 32.4024 16.78 31.84 16.8622 31.2248Z" fill="#217EC3"/>
<path d="M12.8805 31.7968C13.0125 31.1317 12.6242 30.6622 12.0403 30.7561C11.4564 30.85 10.8744 31.5083 10.711 32.2174C10.5477 32.9265 10.893 33.3764 11.5092 33.2385C12.1254 33.1006 12.7504 32.4619 12.8805 31.7968Z" fill="#217EC3"/>
<path d="M8.89978 32.6254C9.07975 31.8899 8.72275 31.391 8.14078 31.5123C7.55881 31.6336 6.94163 32.3926 6.72938 33.1858C6.51714 33.9791 6.81546 34.4632 7.43264 34.2793C8.04981 34.0955 8.72275 33.3619 8.89978 32.6254Z" fill="#217EC3"/>
<path d="M40.75 33.1858C40.5388 32.3916 39.9245 31.6375 39.3396 31.5123C38.7547 31.3871 38.3997 31.8898 38.5806 32.6254C38.7616 33.3609 39.4316 34.0925 40.0478 34.2793C40.664 34.4662 40.9613 33.98 40.75 33.1858Z" fill="#217EC3"/>
<path d="M36.7692 32.2169C36.6058 31.5078 36.0249 30.8476 35.4399 30.7557C34.855 30.6637 34.4677 31.1322 34.5988 31.7964C34.7298 32.4605 35.3539 33.1002 35.9681 33.2381C36.5824 33.376 36.9306 32.9251 36.7692 32.2169Z" fill="#217EC3"/>
<path d="M32.7837 31.5049C32.6702 30.8603 32.1205 30.2783 31.5356 30.2157C30.9507 30.1531 30.5311 30.607 30.6143 31.2251C30.6974 31.8433 31.2735 32.3988 31.8858 32.4967C32.4981 32.5945 32.9011 32.1504 32.7837 31.5049Z" fill="#217EC3"/>
<path d="M28.806 31.0481C28.7415 30.4446 28.225 29.9213 27.6401 29.891C27.5047 29.8815 27.3688 29.9014 27.2418 29.9493C27.1148 29.9973 26.9997 30.0722 26.9044 30.1688C26.8091 30.2654 26.7358 30.3815 26.6895 30.5092C26.6433 30.6368 26.6252 30.7729 26.6366 30.9082C26.6698 31.4951 27.201 32.0007 27.8172 32.0467C28.4334 32.0927 28.8715 31.6525 28.806 31.0481Z" fill="#217EC3"/>
<path d="M24.8249 30.8503C24.8249 30.5627 24.7106 30.2868 24.5072 30.0833C24.3037 29.8799 24.0278 29.7656 23.7402 29.7656C23.4525 29.7656 23.1766 29.8799 22.9731 30.0833C22.7697 30.2868 22.6554 30.5627 22.6554 30.8503C22.6388 31.4372 23.123 31.8989 23.7402 31.8989C24.3573 31.8989 24.8405 31.4362 24.8249 30.8503Z" fill="#217EC3"/>
<path d="M20.9959 27.5361C21.0125 26.9492 20.5665 26.4758 20.0051 26.4885C19.4436 26.5012 18.9722 27.003 18.9399 27.6065C18.9077 28.21 19.34 28.6716 19.918 28.6443C20.2032 28.6262 20.4714 28.5028 20.6706 28.298C20.8698 28.0932 20.9858 27.8216 20.9959 27.5361Z" fill="#217EC3"/>
<path d="M17.2243 27.6948C17.2654 27.0786 16.8331 26.5964 16.2707 26.6189C15.7083 26.6414 15.2251 27.1862 15.1684 27.8347C15.1117 28.4832 15.5166 28.9527 16.0937 28.8989C16.6707 28.8451 17.1833 28.3101 17.2243 27.6948Z" fill="#217EC3"/>
<path d="M13.4515 27.9809C13.518 27.3167 13.0965 26.8072 12.536 26.8404C11.9756 26.8737 11.4777 27.4801 11.3965 28.1912C11.3153 28.9022 11.69 29.402 12.27 29.3228C12.85 29.2436 13.387 28.646 13.4515 27.9809Z" fill="#217EC3"/>
<path d="M9.68029 28.3946C9.77027 27.659 9.36143 27.0976 8.8 27.1465C8.23857 27.1954 7.72898 27.8811 7.62628 28.6753C7.52358 29.4695 7.87179 30.0202 8.44886 29.9136C9.02594 29.8069 9.59128 29.1311 9.68029 28.3946Z" fill="#217EC3"/>
<path d="M39.8552 28.6752C39.7496 27.881 39.241 27.1943 38.6815 27.1464C38.1221 27.0985 37.7122 27.6589 37.8012 28.3945C37.8902 29.13 38.4575 29.8068 39.0336 29.9135C39.6097 30.0201 39.9609 29.4694 39.8552 28.6752Z" fill="#217EC3"/>
<path d="M36.0837 28.1904C36.0026 27.4823 35.5057 26.8759 34.9443 26.8397C34.3828 26.8035 33.9662 27.316 34.0278 27.9802C34.0894 28.6443 34.6332 29.2419 35.2093 29.3221C35.7854 29.4023 36.1649 28.8986 36.0837 28.1904Z" fill="#217EC3"/>
<path d="M32.3113 27.8338C32.2546 27.1882 31.7714 26.6434 31.21 26.62C30.6486 26.5965 30.2153 27.0777 30.2564 27.6959C30.2974 28.314 30.81 28.8471 31.3861 28.8999C31.9622 28.9527 32.3691 28.4783 32.3113 27.8338Z" fill="#217EC3"/>
<path d="M28.5398 27.6065C28.5075 27.003 28.0361 26.5002 27.4747 26.4885C26.9132 26.4768 26.4672 26.9472 26.4838 27.536C26.4944 27.8211 26.6101 28.0922 26.8089 28.2969C27.0076 28.5015 27.2751 28.6253 27.5598 28.6442C28.1407 28.6716 28.5721 28.2099 28.5398 27.6065Z" fill="#217EC3"/>
<path d="M24.7684 27.5064C24.777 27.3662 24.7569 27.2258 24.7092 27.0936C24.6615 26.9615 24.5872 26.8406 24.491 26.7382C24.3948 26.6359 24.2787 26.5543 24.1497 26.4986C24.0208 26.4428 23.8818 26.4141 23.7414 26.4141C23.6009 26.4141 23.4619 26.4428 23.333 26.4986C23.2041 26.5543 23.0879 26.6359 22.9917 26.7382C22.8955 26.8406 22.8212 26.9615 22.7735 27.0936C22.7258 27.2258 22.7057 27.3662 22.7144 27.5064C22.7083 27.6451 22.7304 27.7835 22.7793 27.9134C22.8282 28.0433 22.9028 28.1619 22.9988 28.2621C23.0947 28.3624 23.21 28.4422 23.3376 28.4967C23.4653 28.5512 23.6026 28.5793 23.7414 28.5793C23.8801 28.5793 24.0175 28.5512 24.1451 28.4967C24.2727 28.4422 24.388 28.3624 24.4839 28.2621C24.5799 28.1619 24.6546 28.0433 24.7035 27.9134C24.7523 27.7835 24.7744 27.6451 24.7684 27.5064Z" fill="#217EC3"/>
<path d="M21.0464 24.1629C21.0512 23.8863 20.9475 23.6189 20.7576 23.4178C20.5677 23.2167 20.3065 23.0979 20.0301 23.087C19.4716 23.0801 19.0286 23.5614 19.0286 24.1629C19.0286 24.7644 19.4716 25.2486 20.0301 25.2388C20.3064 25.2276 20.5674 25.1088 20.7573 24.9078C20.9472 24.7067 21.0509 24.4394 21.0464 24.1629Z" fill="#217EC3"/>
<path d="M17.3445 24.1632C17.3445 23.548 16.8799 23.0384 16.3214 23.0247C15.7629 23.011 15.3267 23.5137 15.3267 24.1632C15.3267 24.8126 15.7629 25.3173 16.3214 25.3027C16.8799 25.288 17.3445 24.7794 17.3445 24.1632Z" fill="#217EC3"/>
<path d="M13.6421 24.1637C13.6421 23.4996 13.1706 22.945 12.6121 22.9235C12.0537 22.9019 11.6243 23.4555 11.6243 24.1637C11.6243 24.8718 12.0527 25.4274 12.6121 25.4049C13.1716 25.3824 13.6421 24.8288 13.6421 24.1637Z" fill="#217EC3"/>
<path d="M9.94066 24.1642C9.94066 23.4287 9.46139 22.8096 8.90388 22.7812C8.34636 22.7529 7.92578 23.3681 7.92578 24.1642C7.92578 24.9604 8.34734 25.5776 8.90388 25.5483C9.46042 25.5189 9.94066 24.9008 9.94066 24.1642Z" fill="#217EC3"/>
<path d="M39.5581 24.1643C39.5581 23.3701 39.1356 22.7519 38.58 22.7813C38.0244 22.8106 37.5422 23.4288 37.5432 24.1643C37.5442 24.8998 38.0215 25.519 38.58 25.5483C39.1385 25.5777 39.5571 24.9595 39.5581 24.1643Z" fill="#217EC3"/>
<path d="M35.855 24.1637C35.855 23.4556 35.4266 22.901 34.8681 22.9235C34.3096 22.946 33.8372 23.4996 33.8381 24.1637C33.8391 24.8279 34.3096 25.3834 34.8681 25.4049C35.4266 25.4265 35.855 24.8729 35.855 24.1637Z" fill="#217EC3"/>
<path d="M32.1531 24.1632C32.1531 23.5187 31.7178 23.0101 31.1583 23.0247C30.5989 23.0394 30.1353 23.548 30.1362 24.1632C30.1372 24.7785 30.5999 25.288 31.1583 25.3027C31.7168 25.3174 32.1531 24.8088 32.1531 24.1632Z" fill="#217EC3"/>
<path d="M28.4505 24.163C28.4505 23.5595 28.0074 23.0773 27.449 23.0871C27.1636 23.0871 26.8899 23.2004 26.6882 23.4022C26.4864 23.604 26.373 23.8776 26.373 24.163C26.373 24.4483 26.4864 24.722 26.6882 24.9237C26.8899 25.1255 27.1636 25.2389 27.449 25.2389C28.0074 25.2487 28.4505 24.7674 28.4505 24.163Z" fill="#217EC3"/>
<path d="M24.7489 24.1636C24.7395 23.966 24.6723 23.7755 24.5556 23.6157C24.439 23.456 24.278 23.334 24.0926 23.2648C23.9073 23.1957 23.7057 23.1825 23.5129 23.2269C23.3201 23.2713 23.1446 23.3713 23.0081 23.5146C22.8717 23.6578 22.7803 23.8379 22.7452 24.0326C22.7102 24.2273 22.7331 24.428 22.8111 24.6098C22.889 24.7916 23.0187 24.9465 23.1839 25.0554C23.3491 25.1642 23.5426 25.2221 23.7404 25.2219C23.8762 25.2189 24.0101 25.1891 24.1343 25.1342C24.2585 25.0793 24.3707 25.0004 24.4644 24.9021C24.5581 24.8038 24.6314 24.688 24.6802 24.5612C24.729 24.4345 24.7524 24.2994 24.7489 24.1636Z" fill="#217EC3"/>
<path d="M20.9958 20.7919C20.9855 20.5066 20.8698 20.2353 20.6711 20.0304C20.4724 19.8256 20.2047 19.7017 19.9199 19.6827C19.3428 19.6563 18.9105 20.117 18.9418 20.7215C18.9731 21.3259 19.4455 21.8277 20.0069 21.8394C20.5684 21.8512 21.0124 21.3807 20.9958 20.7919Z" fill="#217EC3"/>
<path d="M17.2242 20.6329C17.1831 20.0176 16.6706 19.4817 16.0935 19.4288C15.5164 19.376 15.1154 19.8484 15.1682 20.493C15.2211 21.1376 15.7091 21.6833 16.2706 21.7068C16.832 21.7303 17.2653 21.2501 17.2242 20.6329Z" fill="#217EC3"/>
<path d="M13.4514 20.3484C13.3869 19.6833 12.847 19.0867 12.2699 19.0064C11.6928 18.9262 11.3153 19.429 11.3965 20.1381C11.4776 20.8472 11.9735 21.4527 12.5359 21.4889C13.0983 21.5251 13.515 21.0125 13.4514 20.3484Z" fill="#217EC3"/>
<path d="M9.67988 19.9333C9.59087 19.1968 9.02358 18.52 8.4465 18.4144C7.86942 18.3087 7.51829 18.8584 7.62392 19.6526C7.72955 20.4468 8.23914 21.1335 8.79764 21.1814C9.35613 21.2293 9.76987 20.6689 9.67988 19.9333Z" fill="#217EC3"/>
<path d="M39.8556 19.6548C39.9612 18.8606 39.611 18.3099 39.033 18.4165C38.4549 18.5231 37.8896 19.199 37.8006 19.9355C37.7116 20.672 38.1185 21.2315 38.6809 21.1836C39.2433 21.1356 39.7499 20.4471 39.8556 19.6548Z" fill="#217EC3"/>
<path d="M36.0842 20.1379C36.1654 19.4288 35.7908 18.927 35.2098 19.0063C34.6288 19.0855 34.0938 19.6831 34.0282 20.3482C33.9627 21.0133 34.3833 21.5219 34.9447 21.4887C35.5061 21.4554 36.003 20.8461 36.0842 20.1379Z" fill="#217EC3"/>
<path d="M32.3112 20.4941C32.3689 19.8496 31.964 19.3762 31.3859 19.4299C30.8079 19.4837 30.2963 20.0168 30.2562 20.634C30.2161 21.2512 30.6475 21.7324 31.2099 21.7099C31.7723 21.6874 32.2545 21.1387 32.3112 20.4941Z" fill="#217EC3"/>
<path d="M28.5398 20.7215C28.5721 20.117 28.1407 19.6563 27.5617 19.6827C27.2771 19.7021 27.0096 19.8261 26.811 20.0309C26.6123 20.2357 26.4965 20.5068 26.4858 20.7919C26.4692 21.3787 26.9152 21.8521 27.4766 21.8394C28.038 21.8267 28.5075 21.3249 28.5398 20.7215Z" fill="#217EC3"/>
<path d="M24.7684 20.8199C24.7744 20.6812 24.7523 20.5428 24.7035 20.4129C24.6546 20.2831 24.5799 20.1644 24.4839 20.0642C24.388 19.9639 24.2727 19.8842 24.1451 19.8297C24.0175 19.7752 23.8801 19.7471 23.7414 19.7471C23.6026 19.7471 23.4653 19.7752 23.3376 19.8297C23.21 19.8842 23.0947 19.9639 22.9988 20.0642C22.9028 20.1644 22.8282 20.2831 22.7793 20.4129C22.7304 20.5428 22.7083 20.6812 22.7144 20.8199C22.7057 20.9601 22.7258 21.1006 22.7735 21.2327C22.8212 21.3648 22.8955 21.4858 22.9917 21.5881C23.0879 21.6904 23.2041 21.772 23.333 21.8278C23.4619 21.8835 23.6009 21.9123 23.7414 21.9123C23.8818 21.9123 24.0208 21.8835 24.1497 21.8278C24.2787 21.772 24.3948 21.6904 24.491 21.5881C24.5872 21.4858 24.6615 21.3648 24.7092 21.2327C24.7569 21.1006 24.777 20.9601 24.7684 20.8199Z" fill="#217EC3"/>
<path d="M20.843 17.4192C20.8107 16.8323 20.2796 16.3266 19.6634 16.2807C19.0472 16.2347 18.609 16.6719 18.6735 17.2793C18.7381 17.8867 19.2545 18.4051 19.8394 18.4364C19.9748 18.4459 20.1107 18.426 20.2377 18.378C20.3647 18.3301 20.4798 18.2552 20.5752 18.1586C20.6705 18.0619 20.7438 17.9458 20.79 17.8182C20.8362 17.6906 20.8543 17.5544 20.843 17.4192Z" fill="#217EC3"/>
<path d="M16.8623 17.1034C16.7811 16.4872 16.2021 15.9297 15.5859 15.8319C14.9697 15.7341 14.5785 16.1762 14.6919 16.8217C14.8054 17.4673 15.3551 18.0483 15.94 18.1109C16.5249 18.1735 16.9445 17.7196 16.8623 17.1034Z" fill="#217EC3"/>
<path d="M12.8805 16.531C12.7504 15.8658 12.1254 15.2272 11.5111 15.0892C10.8969 14.9513 10.5506 15.4022 10.713 16.1104C10.8754 16.8185 11.4573 17.4797 12.0422 17.5717C12.6271 17.6636 13.0125 17.1951 12.8805 16.531Z" fill="#217EC3"/>
<path d="M8.89963 15.7017C8.72063 14.9652 8.04868 14.2346 7.43248 14.0477C6.81628 13.8609 6.51894 14.347 6.72923 15.1413C6.93952 15.9355 7.55474 16.6896 8.14062 16.8177C8.7265 16.9458 9.0796 16.4372 8.89963 15.7017Z" fill="#217EC3"/>
<path d="M40.7506 15.1413C40.9619 14.3471 40.6645 13.8639 40.0473 14.0478C39.4302 14.2317 38.7602 14.9652 38.5802 15.7018C38.4002 16.4383 38.7553 16.94 39.3372 16.8178C39.9192 16.6955 40.5393 15.9375 40.7506 15.1413Z" fill="#217EC3"/>
<path d="M36.7698 16.1104C36.9321 15.4022 36.5878 14.9513 35.9707 15.0892C35.3535 15.2272 34.7295 15.8658 34.6013 16.531C34.4732 17.1961 34.8576 17.6655 35.4425 17.5717C36.0274 17.4778 36.6064 16.8175 36.7698 16.1104Z" fill="#217EC3"/>
<path d="M32.7837 16.8243C32.8971 16.1788 32.5069 15.7425 31.8897 15.8345C31.2725 15.9264 30.6954 16.4879 30.6182 17.106C30.5409 17.7242 30.9556 18.1819 31.5395 18.1154C32.1234 18.0489 32.6741 17.4689 32.7837 16.8243Z" fill="#217EC3"/>
<path d="M28.806 17.2793C28.8715 16.6748 28.4334 16.2347 27.8172 16.2806C27.201 16.3266 26.6698 16.8294 26.6366 17.4191C26.6252 17.5544 26.6433 17.6905 26.6895 17.8182C26.7358 17.9458 26.8091 18.0619 26.9044 18.1586C26.9997 18.2552 27.1148 18.3301 27.2418 18.378C27.3688 18.426 27.5047 18.4459 27.6401 18.4364C28.225 18.406 28.7415 17.8828 28.806 17.2793Z" fill="#217EC3"/>
<path d="M24.8249 17.4772C24.8405 16.8904 24.3564 16.4287 23.7402 16.4287C23.124 16.4287 22.6388 16.8914 22.6554 17.4772C22.6554 17.7649 22.7697 18.0408 22.9731 18.2442C23.1766 18.4477 23.4525 18.5619 23.7402 18.5619C24.0278 18.5619 24.3037 18.4477 24.5072 18.2442C24.7106 18.0408 24.8249 17.7649 24.8249 17.4772Z" fill="#217EC3"/>
<path d="M20.59 14.0476C20.5401 13.4607 19.9464 12.9443 19.2706 12.8738C18.5947 12.8034 18.133 13.2279 18.2299 13.8324C18.293 14.1444 18.4534 14.4283 18.688 14.6434C18.9226 14.8585 19.2194 14.9937 19.5356 15.0296C20.1665 15.0863 20.6399 14.6364 20.59 14.0476Z" fill="#217EC3"/>
<path d="M16.2589 13.5737C16.1366 12.9575 15.4764 12.3697 14.7995 12.2386C14.1227 12.1076 13.7295 12.5086 13.8997 13.1541C14.0699 13.7997 14.7008 14.4159 15.3306 14.5176C15.9605 14.6193 16.3821 14.189 16.2589 13.5737Z" fill="#217EC3"/>
<path d="M11.9286 12.7152C11.733 12.0501 11.0063 11.3693 10.3294 11.1737C9.65258 10.9781 9.32491 11.3762 9.56846 12.0853C9.81201 12.7944 10.4957 13.5035 11.1256 13.6503C11.7555 13.797 12.1252 13.3803 11.9286 12.7152Z" fill="#217EC3"/>
<path d="M7.59857 11.4705C7.32959 10.734 6.53538 9.94171 5.85951 9.67762C5.18365 9.41353 4.92152 9.83216 5.23842 10.6274C5.55532 11.4225 6.29085 12.2422 6.92075 12.4447C7.55064 12.6471 7.86852 12.206 7.59857 11.4705Z" fill="#217EC3"/>
<path d="M42.2418 10.6311C42.5577 9.83591 42.2975 9.42022 41.6207 9.68137C40.9438 9.94252 40.1535 10.7348 39.8816 11.4713C39.6097 12.2078 39.9296 12.6519 40.5585 12.4494C41.1874 12.2469 41.9239 11.4253 42.2418 10.6311Z" fill="#217EC3"/>
<path d="M37.9109 12.0853C38.1545 11.3762 37.8278 10.9781 37.15 11.1737C36.4721 11.3693 35.7464 12.054 35.5508 12.7152C35.3551 13.3764 35.7249 13.8077 36.3538 13.6551C36.9827 13.5026 37.6674 12.7934 37.9109 12.0853Z" fill="#217EC3"/>
<path d="M33.5808 13.1539C33.751 12.5083 33.3568 12.1083 32.68 12.2384C32.0031 12.3684 31.3429 12.9573 31.2187 13.5735C31.0945 14.1897 31.518 14.6191 32.1469 14.5173C32.7758 14.4156 33.4106 13.7984 33.5808 13.1539Z" fill="#217EC3"/>
<path d="M29.25 13.8364C29.3478 13.2319 28.8871 12.8123 28.2103 12.8778C27.5334 12.9434 26.9387 13.4569 26.8908 14.0515C26.8429 14.6462 27.3153 15.0903 27.9452 15.0384C28.262 15.0021 28.559 14.8661 28.7935 14.6501C29.028 14.434 29.1878 14.1491 29.25 13.8364Z" fill="#217EC3"/>
<path d="M24.9197 14.1345C24.9442 13.5476 24.417 13.0908 23.7402 13.0908C23.0633 13.0908 22.5361 13.5486 22.5596 14.1345C22.5831 14.7203 23.1103 15.2104 23.7402 15.2104C24.3701 15.2104 24.8963 14.7194 24.9197 14.1345Z" fill="#217EC3"/>
<path d="M20.2336 10.6744C20.1681 10.0875 19.4952 9.56035 18.7371 9.47526C17.9791 9.39016 17.4783 9.79021 17.6074 10.3947C17.7365 10.9991 18.3958 11.5625 19.0902 11.6339C19.7847 11.7053 20.3001 11.2632 20.2336 10.6744Z" fill="#217EC3"/>
<path d="M15.4151 10.0438C15.2517 9.42762 14.4927 8.81337 13.7347 8.64318C12.9767 8.473 12.561 8.8388 12.7889 9.48337C13.0168 10.1279 13.7464 10.7823 14.4419 10.9222C15.1373 11.062 15.5794 10.6561 15.4151 10.0438Z" fill="#217EC3"/>
<path d="M10.5955 8.89562C10.3353 8.23052 9.48924 7.5077 8.73121 7.2534C7.97319 6.99909 7.64552 7.35121 7.96927 8.05544C8.29302 8.75967 9.09702 9.52258 9.79245 9.73581C10.4879 9.94903 10.8576 9.56366 10.5955 8.89562Z" fill="#217EC3"/>
<path d="M5.7775 7.2394C5.41854 6.50289 4.48642 5.65293 3.7235 5.3145C2.96058 4.97608 2.72877 5.32429 3.1474 6.1185C3.56603 6.91272 4.44827 7.80181 5.1437 8.08154C5.83912 8.36128 6.13744 7.97493 5.7775 7.2394Z" fill="#217EC3"/>
<path d="M44.3254 6.1185C44.7479 5.32429 44.5073 4.97608 43.7483 5.3145C42.9893 5.65293 42.0581 6.50289 41.6992 7.2394C41.3402 7.97591 41.6376 8.36226 42.332 8.08154C43.0265 7.80083 43.9067 6.91272 44.3254 6.1185Z" fill="#217EC3"/>
<path d="M39.51 8.05853C39.8347 7.34941 39.51 7.00316 38.7491 7.25649C37.9881 7.50981 37.145 8.23459 36.8838 8.89871C36.6227 9.56284 36.9924 9.95017 37.6868 9.7389C38.3813 9.52763 39.1853 8.76667 39.51 8.05853Z" fill="#217EC3"/>
<path d="M34.6912 9.48212C34.9181 8.83658 34.5043 8.47273 33.7463 8.64194C32.9883 8.81115 32.2283 9.42441 32.065 10.0426C31.9016 10.6607 32.3437 11.0617 33.0431 10.9229C33.7424 10.784 34.4642 10.1277 34.6912 9.48212Z" fill="#217EC3"/>
<path d="M29.8723 10.3945C30.0014 9.78999 29.5016 9.39092 28.7435 9.47504C27.9855 9.55916 27.3116 10.0844 27.2461 10.6742C27.1805 11.264 27.698 11.7022 28.3895 11.6337C29.081 11.5652 29.7432 10.9979 29.8723 10.3945Z" fill="#217EC3"/>
<path d="M25.0568 10.7917C25.0891 10.2048 24.5023 9.75293 23.7442 9.75293C22.9862 9.75293 22.3993 10.2058 22.4306 10.7917C22.4619 11.3775 23.0488 11.8676 23.7442 11.8676C24.4397 11.8676 25.0216 11.3766 25.0568 10.7917Z" fill="#217EC3"/>
</g>
<defs>
<clipPath id="clip0_14_1279">
<rect width="41.5916" height="37.9561" fill="white" transform="translate(2.94336 5.18457)"/>
</clipPath>
</defs>
</svg>
